<svg xmlns="http://www.w3.org/2000/svg" id="Logo" version="1.1" viewBox="0 0 494.381 82.39683333333332" width="1200" height="200"><rect id="Hintergrund" height="82.39683333333332" fill="#e30613" width="494.381"/><g id="Wortmarke" transform="translate(0, 16.19841666666666), scale(1)"><path id="D" d="M37,22.27v5.4c0,.89.13,3.14-1.28,3.74-1.81.76-3.13.51-5,.54H24.54V18h6.24c1.83,0,3.14-.22,4.95.55C37.14,19.13,37,21.38,37,22.27Zm.7,17.65c3.78,0,7.91.32,10.62-1s3.21-4.78,3.21-6.58V17.67c0-1.81-.48-5.27-3.21-6.58s-6.83-1-10.62-1H10V39.93H37.71" fill-rule="evenodd" fill="#ffed00"/><path id="L" d="M59.76,39.93V10.05H74.31V32h19v8H59.76" fill="#ffed00"/><path id="R" d="M114.39,15.33h6.29c2,0,3.52-.16,4.88.47A2.48,2.48,0,0,1,127,18.59a2.58,2.58,0,0,1-1.43,2.82c-1.45.63-2.5.46-4.88.46h-6.29V15.33ZM99.84,39.93V10.05h27.49c3.17,0,6.76-.26,9.34.94,2.92,1.37,4.51,2.94,4.51,6.22l0,.8c0,2.56-1.07,3.89-3.21,5.26s-4.71,1.57-9.69,1.57h6a11,11,0,0,1,4.87,1,4.11,4.11,0,0,1,2.07,3.32V39.93H126.62V30.47c0-.91.07-2.39-1.22-2.8s-2.29-.31-4.54-.36h-6.47V39.93H99.84" fill-rule="evenodd" fill="#ffed00"/><path id="G" d="M169.14,21.87h20.77V33.29a6.33,6.33,0,0,1-4.49,6c-3,.84-6,.65-9.34.65H162.2c-4.6.06-8.52.4-10.9-1.25a6.51,6.51,0,0,1-2.93-5.39V16.69c0-2.31,1.27-4,3-5.37,2.06-1.7,6.34-1.27,10.87-1.27h13.88c5.47,0,9.08,0,11.1,1.45C190.26,13.7,190,18,190,18H176.05c-.44-2.16-1.67-2.72-4.49-2.72H167.1c-3.06,0-4.2,1-4.18,2.82V31.36c0,1.59.23,2.29,1.47,2.89,1,.49,2.63.41,4.53.41h3.53c3.34,0,3.63-1.82,3.63-3.81V27.31h-6.94V21.87" fill="#ffed00"/></g><rect id="Trenner" x="200" y="5" width="1.82" height="40" fill="#ffed00" transform="translate(0, 16.19841666666666), scale(1)"/><path fill="#ffed00" d="M217.124,12.38q-1.836,0.901-1.836,4.1735t1.717,4.2585q0.51,0.306,1.428,0.306q1.496,0,2.295-1.139q0.374-0.544,0.6035-1.4195t0.2295-1.6915q0-3.247-1.428-4.25q-0.731-0.527-1.581-0.527t-1.428,0.289z M212.585,17.786q-0.051-0.578-0.051-1.4025t0.2975-2.006t0.9945-2.0995q1.547-2.074,4.607-2.074q3.706,0,5.117,2.856q0.765,1.547,0.765,3.5785t-0.9095,3.7485t-2.9495,2.363q-0.969,0.306-2.125,0.306q-2.635,0-4.284-1.683q-1.258-1.292-1.462-3.587z M226.151,16.273q0-0.833-0.119-2.142l2.363,0l0.051,1.649q0.323-0.748,0.748-1.088q0.731-0.578,1.904-0.578l0.272,0l0,2.261q-0.306-0.034-0.595-0.034q-1.207,0.017-1.717,0.612q-0.272,0.323-0.3315,0.7395t-0.0595,0.8245l0,4.233l-2.516,0l0-6.477z M235.9685,20.948q0.2295,0.085,0.6885,0.085t0.816-0.051l0,1.649q-0.986,0.272-1.938,0.272q-1.649,0-2.227-0.901q-0.323-0.51-0.323-1.411l0-4.709l-1.649,0l0-1.666l1.649,0l0-1.683l2.499-0.918l0,2.601l2.04,0l0,1.666l-2.04,0l0,3.876q0,0.68,0.1275,0.8925t0.357,0.2975z M243.338,16.494q-0.102-1.02-1.224-1.02q-0.51,0-0.85,0.2295t-0.34,0.646t0.306,0.5695t0.867,0.306l1.547,0.425q2.295,0.629,2.295,2.397q0,1.207-1.037,2.0825t-2.9325,0.8755t-2.9155-1.054q-0.425-0.442-0.5185-0.9095t-0.1105-0.7735l2.363,0q0.034,0.493,0.272,0.731q0.442,0.442,1.139,0.442t1.02-0.3145t0.323-0.6545t-0.2295-0.578t-0.9605-0.442l-1.564-0.425q-0.85-0.221-1.275-0.544q-0.901-0.697-0.901-1.887t1.0455-1.9125t2.7115-0.7225q2.193,0,2.975,1.411q0.255,0.476,0.289,1.122l-2.295,0z M250.393,20.54q0.34,0.323,0.986,0.323q1.088,0,1.53-1.088q0.221-0.544,0.221-1.479q0-2.499-1.717-2.499q-0.714,0-1.224,0.595t-0.51,2.0315t0.714,2.1165z M255.561,22.665q0,3.468-4.114,3.468q-1.598,0-2.3205-0.34t-1.1475-0.8925t-0.476-1.5215l2.414,0q0.085,0.459,0.238,0.68q0.391,0.51,1.1135,0.51t1.1475-0.272q0.595-0.374,0.646-1.547q0.034-0.68,0.034-1.343q-0.799,1.02-1.802,1.139q-0.306,0.034-0.51,0.034q-1.751,0-2.686-1.258t-0.935-2.9835t0.9605-2.975t2.7115-1.2495q1.02,0,1.683,0.476q0.289,0.187,0.4505,0.3995t0.2635,0.3485l0.085-1.139l2.363,0q-0.119,1.19-0.119,2.125l0,6.341z M257.924,16.273q0-0.833-0.119-2.142l2.363,0l0.051,1.649q0.323-0.748,0.748-1.088q0.731-0.578,1.904-0.578l0.272,0l0,2.261q-0.306-0.034-0.595-0.034q-1.207,0.017-1.717,0.612q-0.272,0.323-0.3315,0.7395t-0.0595,0.8245l0,4.233l-2.516,0l0-6.477z M271.915,22.121q0.051,0.51,0.068,0.629l-2.448,0l-0.085-1.139q-0.408,0.544-0.748,0.799q-0.765,0.561-1.7085,0.561t-1.6235-0.34q-1.513-0.765-1.581-2.499q-0.017-0.425-0.017-0.629l0-5.338l2.55,0l0,5.117q0,0.85,0.136,1.19q0.306,0.697,1.3005,0.697t1.3175-0.799q0.204-0.476,0.204-1.87l0-4.335l2.584,0l0,5.661q0.051,2.091,0.051,2.108l0,0.187z M277.406,20.88q0.357,0.34,1.1645,0.34t1.275-0.782t0.4675-2.057q0-1.768-0.833-2.482q-0.34-0.289-0.765-0.289q-0.901,0-1.428,0.612q-0.68,0.782-0.68,2.346t0.799,2.312z M279.123,22.869q-1.496,0-2.397-1.105l0,4.284l-2.567,0l0-11.883l2.448,0l0.068,1.224q0.782-1.394,2.533-1.394t2.703,1.156t0.952,3.1025t-0.9775,3.281t-2.7625,1.3345z M287.793,20.88q0.357,0.34,1.1645,0.34t1.275-0.782t0.4675-2.057q0-1.768-0.833-2.482q-0.34-0.289-0.765-0.289q-0.901,0-1.428,0.612q-0.68,0.782-0.68,2.346t0.799,2.312z M289.51,22.869q-1.496,0-2.397-1.105l0,4.284l-2.567,0l0-11.883l2.448,0l0.068,1.224q0.782-1.394,2.533-1.394t2.703,1.156t0.952,3.1025t-0.9775,3.281t-2.7625,1.3345z M300.237,17.514q0-1.122-0.646-1.666q-0.306-0.255-0.782-0.255q-0.85,0-1.2495,0.5865t-0.4335,1.3345l3.111,0z M297.041,19.095q0,0.867,0.1955,1.3005t0.544,0.714t0.918,0.2805t0.986-0.238t0.6035-0.952l2.295,0q-0.068,0.561-0.1955,0.9605t-0.6205,0.9095q-0.969,1.003-3.009,1.003q-1.258,0-2.278-0.51q-0.408-0.204-0.748-0.561q-1.105-1.139-1.105-3.349q0-2.839,1.785-4.063q1.037-0.714,2.5585-0.714t2.686,1.139t1.1645,3.451q0,0.357-0.017,0.629l-5.763,0z M311.763,20.778l1.785,0q1.241,0,1.666-0.17q0.901-0.374,0.901-1.479q0-1.632-1.87-1.717q-0.493-0.034-0.969-0.034l-1.513,0l0,3.4z M311.763,15.474l1.836,0q0.884,0,1.275-0.17q0.833-0.357,0.833-1.3855t-0.748-1.3685q-0.442-0.187-1.411-0.187l-1.785,0l0,3.111z M309.247,10.476l4.59,0q1.462,0,2.04,0.17q1.547,0.459,2.04,1.615q0.323,0.731,0.323,1.411q0,1.173-0.714,1.836q-0.646,0.646-1.394,0.833l0,0.034q1.309,0.255,1.955,1.0965t0.646,1.9125t-0.544,1.802q-0.816,1.088-2.074,1.36q-0.952,0.204-2.278,0.204l-4.59,0l0-12.274z M325.754,17.514q0-1.122-0.646-1.666q-0.306-0.255-0.782-0.255q-0.85,0-1.2495,0.5865t-0.4335,1.3345l3.111,0z M322.558,19.095q0,0.867,0.1955,1.3005t0.544,0.714t0.918,0.2805t0.986-0.238t0.6035-0.952l2.295,0q-0.068,0.561-0.1955,0.9605t-0.6205,0.9095q-0.969,1.003-3.009,1.003q-1.258,0-2.278-0.51q-0.408-0.204-0.748-0.561q-1.105-1.139-1.105-3.349q0-2.839,1.785-4.063q1.037-0.714,2.5585-0.714t2.686,1.139t1.1645,3.451q0,0.357-0.017,0.629l-5.763,0z M329.987,16.273q0-0.833-0.119-2.142l2.363,0l0.051,1.649q0.323-0.748,0.748-1.088q0.731-0.578,1.904-0.578l0.272,0l0,2.261q-0.306-0.034-0.595-0.034q-1.207,0.017-1.717,0.612q-0.272,0.323-0.3315,0.7395t-0.0595,0.8245l0,4.233l-2.516,0l0-6.477z M335.954,10.459l2.499,0l0,7.242l2.601-3.587l2.839,0l-2.941,3.74l3.128,4.896l-2.975,0l-2.652-4.675l0,4.675l-2.499,0l0-12.291z M347.939,15.338q0.867-1.292,2.482-1.292q0.85,0,1.496,0.34t0.935,0.731q0.629,0.85,0.629,2.414l0,5.219l-2.499,0l0-5.134q0-1.19-0.595-1.649q-0.289-0.221-0.68-0.221q-0.765,0-1.258,0.4165t-0.493,1.3345l0.017,5.253l-2.533,0l0-12.274l2.499,0l0,4.862z M360.978,17.514q0-1.122-0.646-1.666q-0.306-0.255-0.782-0.255q-0.85,0-1.2495,0.5865t-0.4335,1.3345l3.111,0z M357.782,19.095q0,0.867,0.1955,1.3005t0.544,0.714t0.918,0.2805t0.986-0.238t0.6035-0.952l2.295,0q-0.068,0.561-0.1955,0.9605t-0.6205,0.9095q-0.969,1.003-3.009,1.003q-1.258,0-2.278-0.51q-0.408-0.204-0.748-0.561q-1.105-1.139-1.105-3.349q0-2.839,1.785-4.063q1.037-0.714,2.5585-0.714t2.686,1.139t1.1645,3.451q0,0.357-0.017,0.629l-5.763,0z M365.211,14.148l2.516,0l0,8.602l-2.516,0l0-8.602z M365.126,10.476l2.686,0l0,2.193l-2.686,0l0-2.193z M377.774,15.593q0.85-1.598,2.754-1.598q1.105,0,1.887,0.561q0.748,0.544,0.986,1.428q0.17,0.629,0.17,1.326l0,0.595l0,4.845l-2.533,0l0-5.049q0-0.867-0.187-1.241q-0.357-0.697-1.258-0.697q-1.428,0-1.513,1.717q-0.034,0.493-0.034,0.969l0,4.301l-2.533,0l0-5.1q0-0.799-0.153-1.139q-0.374-0.748-1.258-0.748q-1.037,0-1.394,0.748q-0.187,0.408-0.187,1.19l0,5.049l-2.533,0l0-6.97q0-0.595-0.085-1.615l2.431,0l0.085,1.105q0.391-0.527,0.731-0.748q0.833-0.544,1.734-0.544q0.918,0,1.411,0.1955t0.799,0.4505q0.408,0.357,0.68,0.969z M215.101,35.623q0,0.867,0.238,1.3175t0.6885,0.731t1.411,0.2805t1.5895-0.4675t0.629-1.2325t-0.578-1.105q-0.425-0.255-1.649-0.544q-2.431-0.578-3.5275-1.3855t-1.0965-2.4055t1.224-2.6775t3.638-1.0795q1.156,0,1.819,0.221q2.584,0.901,2.584,3.502l-2.533,0q-0.085-0.714-0.306-1.071q-0.493-0.799-1.547-0.799t-1.6065,0.4505t-0.5525,1.224t0.68,1.1475q0.323,0.187,0.8245,0.323t1.2325,0.3145t1.479,0.4165q2.669,0.799,2.669,3.06q0,1.717-1.3855,2.856t-3.655,1.139t-3.5105-0.833q-0.884-0.595-1.258-1.768q-0.187-0.612-0.187-1.615l2.686,0z M226.372,35.164q0,2.924,1.309,2.924q0.629,0,0.969-0.748q0.153-0.323,0.187-0.901l2.482,0q-0.051,0.765-0.17,1.139q-0.289,0.867-0.935,1.394q-0.986,0.799-2.448,0.799q-0.867,0-1.598-0.238t-1.309-0.901q-1.105-1.241-1.105-3.383q0-1.462,0.4675-2.346t1.1135-1.343q1.037-0.765,2.414-0.765t2.363,0.731q1.156,0.884,1.156,2.482l-2.465,0q-0.017-0.119-0.051-0.374t-0.153-0.527q-0.306-0.68-0.901-0.68q-0.782,0-1.105,1.02q-0.221,0.697-0.221,1.717z M234.991,32.138q0.867-1.292,2.482-1.292q0.85,0,1.496,0.34t0.935,0.731q0.629,0.85,0.629,2.414l0,5.219l-2.499,0l0-5.134q0-1.19-0.595-1.649q-0.289-0.221-0.68-0.221q-0.765,0-1.258,0.4165t-0.493,1.3345l0.017,5.253l-2.533,0l0-12.274l2.499,0l0,4.862z M244.46,30.965l1.581,6.477l1.819-6.477l2.771,0l1.802,6.477l1.683-6.477l2.499,0l-2.941,8.585l-2.737,0l-1.768-6.358l-1.802,6.358l-2.771,0l-2.805-8.585l2.669,0z M257.924,30.948l2.516,0l0,8.602l-2.516,0l0-8.602z M257.839,27.276l2.686,0l0,2.193l-2.686,0l0-2.193z M270.487,32.393q0.85-1.598,2.754-1.598q1.105,0,1.887,0.561q0.748,0.544,0.986,1.428q0.17,0.629,0.17,1.326l0,0.595l0,4.845l-2.533,0l0-5.049q0-0.867-0.187-1.241q-0.357-0.697-1.258-0.697q-1.428,0-1.513,1.717q-0.034,0.493-0.034,0.969l0,4.301l-2.533,0l0-5.1q0-0.799-0.153-1.139q-0.374-0.748-1.258-0.748q-1.037,0-1.394,0.748q-0.187,0.408-0.187,1.19l0,5.049l-2.533,0l0-6.97q0-0.595-0.085-1.615l2.431,0l0.085,1.105q0.391-0.527,0.731-0.748q0.833-0.544,1.734-0.544q0.918,0,1.411,0.1955t0.799,0.4505q0.408,0.357,0.68,0.969z M286.535,32.393q0.85-1.598,2.754-1.598q1.105,0,1.887,0.561q0.748,0.544,0.986,1.428q0.17,0.629,0.17,1.326l0,0.595l0,4.845l-2.533,0l0-5.049q0-0.867-0.187-1.241q-0.357-0.697-1.258-0.697q-1.428,0-1.513,1.717q-0.034,0.493-0.034,0.969l0,4.301l-2.533,0l0-5.1q0-0.799-0.153-1.139q-0.374-0.748-1.258-0.748q-1.037,0-1.394,0.748q-0.187,0.408-0.187,1.19l0,5.049l-2.533,0l0-6.97q0-0.595-0.085-1.615l2.431,0l0.085,1.105q0.391-0.527,0.731-0.748q0.833-0.544,1.734-0.544q0.918,0,1.411,0.1955t0.799,0.4505q0.408,0.357,0.68,0.969z M299.965,34.314q0-1.122-0.646-1.666q-0.306-0.255-0.782-0.255q-0.85,0-1.2495,0.5865t-0.4335,1.3345l3.111,0z M296.769,35.895q0,0.867,0.1955,1.3005t0.544,0.714t0.918,0.2805t0.986-0.238t0.6035-0.952l2.295,0q-0.068,0.561-0.1955,0.9605t-0.6205,0.9095q-0.969,1.003-3.009,1.003q-1.258,0-2.278-0.51q-0.408-0.204-0.748-0.561q-1.105-1.139-1.105-3.349q0-2.839,1.785-4.063q1.037-0.714,2.5585-0.714t2.686,1.139t1.1645,3.451q0,0.357-0.017,0.629l-5.763,0z M304.232,32.325q0-0.731-0.051-1.394l2.414,0l0.068,1.292q0.493-0.884,1.598-1.309q0.493-0.187,1.156-0.187q1.105,0,1.921,0.6205t0.935,1.8785q0.034,0.476,0.034,1.683l0,4.641l-2.567,0l0-5.338q0-0.663-0.136-0.952q-0.357-0.714-1.224-0.714q-1.19,0-1.513,1.156q-0.102,0.323-0.102,0.816l0,5.032l-2.533,0l0-7.055l0-0.17z M323.799,28.891q-0.289-0.051-0.663-0.051q-0.714,0-0.986,0.391q-0.17,0.238-0.17,0.731l0,1.003l1.598,0l0,1.785l-1.598,0l0,6.8l-2.499,0l0-6.8l-1.275,0l0-1.785l1.275,0l0-1.173q0-1.292,0.561-1.938q0.697-0.799,2.397-0.799q0.68,0,1.36,0.085l0,1.751z M326.706,27.361l1.734,0l0,2.006l-1.734,0l0-2.006z M329.63,27.361l1.734,0l0,2.006l-1.734,0l0-2.006z M333.03,38.921q0.051,0.51,0.068,0.629l-2.448,0l-0.085-1.139q-0.408,0.544-0.748,0.799q-0.765,0.561-1.7085,0.561t-1.6235-0.34q-1.513-0.765-1.581-2.499q-0.017-0.476-0.017-0.629l0-5.338l2.55,0l0,5.117q0,0.85,0.136,1.19q0.306,0.697,1.3005,0.697t1.3175-0.799q0.204-0.476,0.204-1.87l0-4.335l2.584,0l0,5.661q0.051,2.091,0.051,2.108l0,0.187z M335.359,33.073q0-0.833-0.119-2.142l2.363,0l0.051,1.649q0.323-0.748,0.748-1.088q0.731-0.578,1.904-0.578l0.272,0l0,2.261q-0.306-0.034-0.595-0.034q-1.207,0.017-1.717,0.612q-0.272,0.323-0.3315,0.7395t-0.0595,0.8245l0,4.233l-2.516,0l0-6.477z M348.721,35.4615q0,1.0965,0.4165,1.8615t1.3175,0.765q0.544,0,0.969-0.289q1.037-0.697,1.037-2.703q0-1.275-0.5015-1.938t-1.2495-0.663t-1.122,0.3315t-0.6205,0.935t-0.2465,1.7z M352.376,32.019l0-4.743l2.533,0l0,10.88q0,0.918,0.068,1.394l-2.55,0l-0.068-1.241q-0.136,0.238-0.306,0.476t-0.7055,0.5865t-1.5215,0.3485q-1.734,0-2.6945-1.122t-0.9605-3.179t1.037-3.315t2.686-1.258t2.482,1.173z M362.304,34.314q0-1.122-0.646-1.666q-0.306-0.255-0.782-0.255q-0.85,0-1.2495,0.5865t-0.4335,1.3345l3.111,0z M359.108,35.895q0,0.867,0.1955,1.3005t0.544,0.714t0.918,0.2805t0.986-0.238t0.6035-0.952l2.295,0q-0.068,0.561-0.1955,0.9605t-0.6205,0.9095q-0.969,1.003-3.009,1.003q-1.258,0-2.278-0.51q-0.408-0.204-0.748-0.561q-1.105-1.139-1.105-3.349q0-2.839,1.785-4.063q1.037-0.714,2.5585-0.714t2.686,1.139t1.1645,3.451q0,0.357-0.017,0.629l-5.763,0z M366.571,32.325q0-0.731-0.051-1.394l2.414,0l0.068,1.292q0.493-0.884,1.598-1.309q0.493-0.187,1.156-0.187q1.105,0,1.921,0.6205t0.935,1.8785q0.034,0.476,0.034,1.683l0,4.641l-2.567,0l0-5.338q0-0.663-0.136-0.952q-0.357-0.714-1.224-0.714q-1.19,0-1.513,1.156q-0.102,0.323-0.102,0.816l0,5.032l-2.533,0l0-7.055l0-0.17z M384.506,37.34q0.34,0.323,0.986,0.323q1.088,0,1.53-1.088q0.221-0.544,0.221-1.479q0-2.499-1.717-2.499q-0.714,0-1.224,0.595t-0.51,2.0315t0.714,2.1165z M389.674,39.465q0,3.468-4.114,3.468q-1.598,0-2.3205-0.34t-1.1475-0.8925t-0.476-1.5215l2.414,0q0.085,0.459,0.238,0.68q0.391,0.51,1.1135,0.51t1.1475-0.272q0.595-0.374,0.646-1.547q0.034-0.68,0.034-1.343q-0.799,1.02-1.802,1.139q-0.306,0.034-0.51,0.034q-1.751,0-2.686-1.258t-0.935-2.9835t0.9605-2.975t2.7115-1.2495q1.02,0,1.683,0.476q0.289,0.187,0.4505,0.3995t0.2635,0.3485l0.085-1.139l2.363,0q-0.119,1.19-0.119,2.125l0,6.341z M400.095,38.921q0.051,0.51,0.068,0.629l-2.448,0l-0.085-1.139q-0.408,0.544-0.748,0.799q-0.765,0.561-1.7085,0.561t-1.6235-0.34q-1.513-0.765-1.581-2.499q-0.017-0.425-0.017-0.629l0-5.338l2.55,0l0,5.117q0,0.85,0.136,1.19q0.306,0.697,1.3005,0.697t1.3175-0.799q0.204-0.476,0.204-1.87l0-4.335l2.584,0l0,5.661q0.051,2.091,0.051,2.108l0,0.187z M405.9685,37.748q0.2295,0.085,0.6885,0.085t0.816-0.051l0,1.649q-0.986,0.272-1.938,0.272q-1.649,0-2.227-0.901q-0.323-0.51-0.323-1.411l0-4.709l-1.649,0l0-1.666l1.649,0l0-1.683l2.499-0.918l0,2.601l2.04,0l0,1.666l-2.04,0l0,3.876q0,0.68,0.1275,0.8925t0.357,0.2975z M413.916,34.314q0-1.122-0.646-1.666q-0.306-0.255-0.782-0.255q-0.85,0-1.2495,0.5865t-0.4335,1.3345l3.111,0z M410.72,35.895q0,0.867,0.1955,1.3005t0.544,0.714t0.918,0.2805t0.986-0.238t0.6035-0.952l2.295,0q-0.068,0.561-0.1955,0.9605t-0.6205,0.9095q-0.969,1.003-3.009,1.003q-1.258,0-2.278-0.51q-0.408-0.204-0.748-0.561q-1.105-1.139-1.105-3.349q0-2.839,1.785-4.063q1.037-0.714,2.5585-0.714t2.686,1.139t1.1645,3.451q0,0.357-0.017,0.629l-5.763,0z M418.183,32.325q0-0.731-0.051-1.394l2.414,0l0.068,1.292q0.493-0.884,1.598-1.309q0.493-0.187,1.156-0.187q1.105,0,1.921,0.6205t0.935,1.8785q0.034,0.476,0.034,1.683l0,4.641l-2.567,0l0-5.338q0-0.663-0.136-0.952q-0.357-0.714-1.224-0.714q-1.19,0-1.513,1.156q-0.102,0.323-0.102,0.816l0,5.032l-2.533,0l0-7.055l0-0.17z M432.616,37.306l6.426-8.041l-6.035,0.051l0-2.006l8.891,0l0,2.329l-6.409,7.99l6.545-0.102l0,2.023l-9.418,0l0-2.244z M445.298,30.965l1.581,6.477l1.819-6.477l2.771,0l1.802,6.477l1.683-6.477l2.499,0l-2.941,8.585l-2.737,0l-1.768-6.358l-1.802,6.358l-2.771,0l-2.805-8.585l2.669,0z M463.641,34.314q0-1.122-0.646-1.666q-0.306-0.255-0.782-0.255q-0.85,0-1.2495,0.5865t-0.4335,1.3345l3.111,0z M460.445,35.895q0,0.867,0.1955,1.3005t0.544,0.714t0.918,0.2805t0.986-0.238t0.6035-0.952l2.295,0q-0.068,0.561-0.1955,0.9605t-0.6205,0.9095q-0.969,1.003-3.009,1.003q-1.258,0-2.278-0.51q-0.408-0.204-0.748-0.561q-1.105-1.139-1.105-3.349q0-2.839,1.785-4.063q1.037-0.714,2.5585-0.714t2.686,1.139t1.1645,3.451q0,0.357-0.017,0.629l-5.763,0z M469.982,35.164q0,2.924,1.309,2.924q0.629,0,0.969-0.748q0.153-0.323,0.187-0.901l2.482,0q-0.051,0.765-0.17,1.139q-0.289,0.867-0.935,1.394q-0.986,0.799-2.448,0.799q-0.867,0-1.598-0.238t-1.309-0.901q-1.105-1.241-1.105-3.383q0-1.462,0.4675-2.346t1.1135-1.343q1.037-0.765,2.414-0.765t2.363,0.731q1.156,0.884,1.156,2.482l-2.465,0q-0.017-0.119-0.051-0.374t-0.153-0.527q-0.306-0.68-0.901-0.68q-0.782,0-1.105,1.02q-0.221,0.697-0.221,1.717z M476.068,27.259l2.499,0l0,7.242l2.601-3.587l2.839,0l-2.941,3.74l3.128,4.896l-2.975,0l-2.652-4.675l0,4.675l-2.499,0l0-12.291z" transform="translate(0, 16.19841666666666), scale(1)"/></svg>